<?xml version="1.0" encoding="UTF-8" standalone="no"?>
<svg
   xmlns:dc="http://purl.org/dc/elements/1.1/"
   xmlns:cc="http://creativecommons.org/ns#"
   xmlns:rdf="http://www.w3.org/1999/02/22-rdf-syntax-ns#"
   xmlns:svg="http://www.w3.org/2000/svg"
   xmlns="http://www.w3.org/2000/svg"
   xmlns:sodipodi="http://sodipodi.sourceforge.net/DTD/sodipodi-0.dtd"
   xmlns:inkscape="http://www.inkscape.org/namespaces/inkscape"
   inkscape:version="1.0 (6e3e5246a0, 2020-05-07)"
   sodipodi:docname="logo-twitter.svg"
   id="svg12"
   xml:space="preserve"
   style="enable-background:new 0 0 400 400;"
   viewBox="0 0 400 400"
   y="0px"
   x="0px"
   version="1.1"><metadata
   id="metadata18"><rdf:RDF><cc:Work
       rdf:about=""><dc:format>image/svg+xml</dc:format><dc:type
         rdf:resource="http://purl.org/dc/dcmitype/StillImage" /><dc:title></dc:title></cc:Work></rdf:RDF></metadata><defs
   id="defs16" /><sodipodi:namedview
   inkscape:current-layer="svg12"
   inkscape:window-maximized="0"
   inkscape:window-y="70"
   inkscape:window-x="406"
   inkscape:cy="196.71362"
   inkscape:cx="72.065728"
   inkscape:zoom="2.13"
   showgrid="false"
   id="namedview14"
   inkscape:window-height="727"
   inkscape:window-width="1621"
   inkscape:pageshadow="2"
   inkscape:pageopacity="0"
   guidetolerance="10"
   gridtolerance="10"
   objecttolerance="10"
   borderopacity="1"
   bordercolor="#666666"
   pagecolor="#ffffff" />
<style
   id="style2"
   type="text/css">
	.st0{opacity:0.15;fill:#292F33;}
	.st1{fill:#FFFFFF;}
</style>
<g
   id="_x31_0_x2013_20_x25__Black_Tint">
	<rect
   id="rect4"
   height="400"
   width="400"
   class="st0" />
</g>
<g
   id="Logo__x2014__FIXED">
	<g
   id="g9">
		<path
   id="path7"
   d="M153.6,301.6c94.3,0,145.9-78.2,145.9-145.9c0-2.2,0-4.4-0.1-6.6c10-7.2,18.7-16.3,25.6-26.6    c-9.2,4.1-19.1,6.8-29.5,8.1c10.6-6.3,18.7-16.4,22.6-28.4c-9.9,5.9-20.9,10.1-32.6,12.4c-9.4-10-22.7-16.2-37.4-16.2    c-28.3,0-51.3,23-51.3,51.3c0,4,0.5,7.9,1.3,11.7c-42.6-2.1-80.4-22.6-105.7-53.6c-4.4,7.6-6.9,16.4-6.9,25.8    c0,17.8,9.1,33.5,22.8,42.7c-8.4-0.3-16.3-2.6-23.2-6.4c0,0.2,0,0.4,0,0.7c0,24.8,17.7,45.6,41.1,50.3c-4.3,1.2-8.8,1.8-13.5,1.8    c-3.3,0-6.5-0.3-9.6-0.9c6.5,20.4,25.5,35.2,47.9,35.6c-17.6,13.8-39.7,22-63.7,22c-4.1,0-8.2-0.2-12.2-0.7    C97.7,293.1,124.7,301.6,153.6,301.6"
   class="st1" />
	</g>
</g>
<path
   id="path20"
   d="m 141.78404,300.89565 c -11.75166,-0.95472 -26.33065,-4.12303 -37.55869,-8.16226 -6.506643,-2.34072 -18.990996,-8.21148 -24.413143,-11.48025 l -3.286385,-1.98122 5.173551,0.2318 c 22.601967,1.0127 44.403907,-4.97847 62.931527,-17.29358 7.07156,-4.7004 7.11772,-4.77594 3.16337,-5.17741 -15.89535,-1.61379 -29.80991,-9.82831 -38.30906,-22.6159 -2.09946,-3.1588 -4.94861,-8.81057 -5.72612,-11.35869 -0.30552,-1.00131 -0.22414,-1.09102 0.76645,-0.84479 2.76474,0.68722 9.86205,0.87108 13.79008,0.35723 4.52047,-0.59134 7.97059,-1.37044 7.62023,-1.7208 -0.11839,-0.1184 -1.76283,-0.64412 -3.6543,-1.16827 -17.34459,-4.80643 -31.855217,-20.21234 -35.637926,-37.83673 -0.978752,-4.56019 -1.720134,-11.42224 -1.23407,-11.42224 0.169732,0 1.198075,0.45377 2.285206,1.00839 3.296494,1.68177 9.71514,3.67408 14.18317,4.40238 6.47891,1.05607 7.82335,0.83339 5.00827,-0.82952 -2.473,-1.46084 -8.048894,-6.99975 -10.920621,-10.8482 -4.463696,-5.98187 -7.75434,-13.38627 -9.420692,-21.19784 -0.776075,-3.63811 -0.775033,-15.14842 0.0017,-18.77935 0.895579,-4.18647 2.839799,-9.96483 4.408436,-13.10218 l 1.386739,-2.77354 3.314034,3.71251 c 24.624084,27.58485 57.023664,44.59781 92.841864,48.7511 8.30522,0.96302 10.04694,0.96363 9.67845,0.003 -0.15464,-0.40299 -0.53266,-3.14537 -0.84003,-6.09418 -1.00121,-9.60487 0.56376,-18.14582 4.98582,-27.2106 2.98677,-6.12258 5.84172,-10.00536 10.87454,-14.78957 10.30195,-9.79305 23.67826,-14.72907 37.74254,-13.92746 11.55759,0.658739 23.50783,5.72343 31.56575,13.37803 2.58912,2.45953 2.76942,2.54705 4.69484,2.27907 5.73156,-0.79772 17.58079,-4.98322 25.5022,-9.00813 2.69713,-1.37043 4.90387,-2.34751 4.90387,-2.17129 0,1.0703 -5.48281,11.15568 -7.53311,13.85682 -3.15107,4.15133 -7.878,8.73484 -11.58347,11.232 -1.60567,1.08209 -2.9261,2.09662 -2.93428,2.25452 -0.0532,1.02797 17.90629,-3.20051 24.18222,-5.69357 1.99177,-0.79122 3.73212,-1.32785 3.86746,-1.19252 0.94325,0.94326 -13.31829,16.4706 -20.12871,21.91527 l -4.036,3.22662 -0.29345,9.74264 c -0.55356,18.37847 -3.82174,34.27131 -10.49931,51.05719 -14.84171,37.30864 -42.37432,65.89941 -77.72153,80.70858 -20.51287,8.59413 -45.80736,12.45834 -69.14141,10.56266 z"
   style="fill:#021740;stroke:none;stroke-width:0.469484;fill-opacity:1" /></svg>
